<svg xmlns="http://www.w3.org/2000/svg" xmlns:xlink="http://www.w3.org/1999/xlink" width="2000" zoomAndPan="magnify" viewBox="0 0 1500 1499.999933" height="2000" preserveAspectRatio="xMidYMid meet" version="1.0"><defs><g/><clipPath id="2b19b73197"><path d="M 187.148438 248.238281 L 1313 248.238281 L 1313 1251.761719 L 187.148438 1251.761719 Z M 187.148438 248.238281 " clip-rule="nonzero"/></clipPath><clipPath id="20c5d08a47"><path d="M 262.148438 248.238281 L 1237.851562 248.238281 C 1279.273438 248.238281 1312.851562 281.816406 1312.851562 323.238281 L 1312.851562 1176.761719 C 1312.851562 1218.183594 1279.273438 1251.761719 1237.851562 1251.761719 L 262.148438 1251.761719 C 220.726562 1251.761719 187.148438 1218.183594 187.148438 1176.761719 L 187.148438 323.238281 C 187.148438 281.816406 220.726562 248.238281 262.148438 248.238281 Z M 262.148438 248.238281 " clip-rule="nonzero"/></clipPath><clipPath id="9e3dd874dc"><path d="M 0.148438 0.238281 L 1126 0.238281 L 1126 1003.761719 L 0.148438 1003.761719 Z M 0.148438 0.238281 " clip-rule="nonzero"/></clipPath><clipPath id="fd0d282e30"><path d="M 75.148438 0.238281 L 1050.851562 0.238281 C 1092.273438 0.238281 1125.851562 33.816406 1125.851562 75.238281 L 1125.851562 928.761719 C 1125.851562 970.183594 1092.273438 1003.761719 1050.851562 1003.761719 L 75.148438 1003.761719 C 33.726562 1003.761719 0.148438 970.183594 0.148438 928.761719 L 0.148438 75.238281 C 0.148438 33.816406 33.726562 0.238281 75.148438 0.238281 Z M 75.148438 0.238281 " clip-rule="nonzero"/></clipPath><clipPath id="33929915da"><rect x="0" width="1126" y="0" height="1004"/></clipPath><clipPath id="4886bcae2b"><path d="M 187 469 L 1313 469 L 1313 1251.761719 L 187 1251.761719 Z M 187 469 " clip-rule="nonzero"/></clipPath><clipPath id="6b5c18aa35"><path d="M 262.148438 469.847656 L 1237.851562 469.847656 C 1279.273438 469.847656 1312.851562 503.425781 1312.851562 544.847656 L 1312.851562 1176.761719 C 1312.851562 1218.183594 1279.273438 1251.761719 1237.851562 1251.761719 L 262.148438 1251.761719 C 220.726562 1251.761719 187.148438 1218.183594 187.148438 1176.761719 L 187.148438 544.847656 C 187.148438 503.425781 220.726562 469.847656 262.148438 469.847656 Z M 262.148438 469.847656 " clip-rule="nonzero"/></clipPath><clipPath id="9567b4e477"><path d="M 0 0.679688 L 1126 0.679688 L 1126 782.761719 L 0 782.761719 Z M 0 0.679688 " clip-rule="nonzero"/></clipPath><clipPath id="bb40a3ace2"><path d="M 75.148438 0.847656 L 1050.851562 0.847656 C 1092.273438 0.847656 1125.851562 34.425781 1125.851562 75.847656 L 1125.851562 707.761719 C 1125.851562 749.183594 1092.273438 782.761719 1050.851562 782.761719 L 75.148438 782.761719 C 33.726562 782.761719 0.148438 749.183594 0.148438 707.761719 L 0.148438 75.847656 C 0.148438 34.425781 33.726562 0.847656 75.148438 0.847656 Z M 75.148438 0.847656 " clip-rule="nonzero"/></clipPath><clipPath id="5d3b98d8ec"><rect x="0" width="1126" y="0" height="783"/></clipPath><clipPath id="cfcfc226c4"><path d="M 187.148438 469.847656 L 1312.851562 469.847656 L 1312.851562 803.449219 L 187.148438 803.449219 Z M 187.148438 469.847656 " clip-rule="nonzero"/></clipPath><clipPath id="d240904d9a"><path d="M 0.148438 0.847656 L 1125.851562 0.847656 L 1125.851562 334.449219 L 0.148438 334.449219 Z M 0.148438 0.847656 " clip-rule="nonzero"/></clipPath><clipPath id="e1965612c9"><rect x="0" width="1126" y="0" height="335"/></clipPath></defs><g clip-path="url(#2b19b73197)"><g clip-path="url(#20c5d08a47)"><g transform="matrix(1, 0, 0, 1, 187, 248)"><g clip-path="url(#33929915da)"><g clip-path="url(#9e3dd874dc)"><g clip-path="url(#fd0d282e30)"><path fill="#ffcb2f" d="M 0.148438 0.238281 L 1125.195312 0.238281 L 1125.195312 1003.761719 L 0.148438 1003.761719 Z M 0.148438 0.238281 " fill-opacity="1" fill-rule="nonzero"/></g></g></g></g></g></g><g clip-path="url(#4886bcae2b)"><g clip-path="url(#6b5c18aa35)"><g transform="matrix(1, 0, 0, 1, 187, 469)"><g clip-path="url(#5d3b98d8ec)"><g clip-path="url(#9567b4e477)"><g clip-path="url(#bb40a3ace2)"><path fill="#ffffff" d="M 0.148438 0.847656 L 1127.203125 0.847656 L 1127.203125 782.761719 L 0.148438 782.761719 Z M 0.148438 0.847656 " fill-opacity="1" fill-rule="nonzero"/></g></g></g></g></g></g><g clip-path="url(#cfcfc226c4)"><g transform="matrix(1, 0, 0, 1, 187, 469)"><g clip-path="url(#e1965612c9)"><g clip-path="url(#d240904d9a)"><path fill="#ffffff" d="M 0.148438 0.847656 L 1126.046875 0.847656 L 1126.046875 334.449219 L 0.148438 334.449219 Z M 0.148438 0.847656 " fill-opacity="1" fill-rule="nonzero"/></g></g></g></g><path stroke-linecap="round" transform="matrix(0.75, 0, 0, 0.75, 191.107092, 655.774484)" fill="none" stroke-linejoin="miter" d="M 14.997837 14.998607 L 350.294741 14.998607 " stroke="#737373" stroke-width="30" stroke-opacity="1" stroke-miterlimit="4"/><path stroke-linecap="round" transform="matrix(0.75, 0, 0, 0.75, 949.978008, 655.774484)" fill="none" stroke-linejoin="miter" d="M 14.998075 14.998607 L 468.831447 14.998607 " stroke="#737373" stroke-width="30" stroke-opacity="1" stroke-miterlimit="4"/><path stroke-linecap="round" transform="matrix(0.75, 0.000000000000001093, -0.000000000000001093, 0.75, 191.164997, 1043.333554)" fill="none" stroke-linejoin="miter" d="M 14.998755 14.997971 L 609.014432 14.997971 " stroke="#737373" stroke-width="30" stroke-opacity="1" stroke-miterlimit="4"/><path stroke-linecap="round" transform="matrix(0.75, 0, 0, 0.75, 1030.797593, 1035.463019)" fill="none" stroke-linejoin="miter" d="M 14.999045 15.002435 L 361.071991 15.002435 " stroke="#737373" stroke-width="30" stroke-opacity="1" stroke-miterlimit="4"/><g fill="#000000" fill-opacity="1"><g transform="translate(548.286202, 960.948761)"><g><path d="M 246.59375 5.84375 C 231.59375 5.84375 218.316406 2.394531 206.765625 -4.5 C 195.222656 -11.394531 186.148438 -20.914062 179.546875 -33.0625 C 172.953125 -45.21875 169.65625 -59.25 169.65625 -75.15625 L 169.65625 -243.90625 C 169.65625 -254.695312 167.101562 -264.441406 162 -273.140625 C 156.894531 -281.847656 150.144531 -288.675781 141.75 -293.625 C 133.351562 -298.570312 124.050781 -301.046875 113.84375 -301.046875 C 103.644531 -301.046875 94.269531 -298.570312 85.71875 -293.625 C 77.175781 -288.675781 70.425781 -281.847656 65.46875 -273.140625 C 60.519531 -264.441406 58.046875 -254.695312 58.046875 -243.90625 L 58.046875 0 L 36 0 L 36 -239.84375 C 36 -255.75 39.296875 -269.773438 45.890625 -281.921875 C 52.492188 -294.078125 61.644531 -303.601562 73.34375 -310.5 C 85.050781 -317.394531 98.550781 -320.84375 113.84375 -320.84375 C 128.84375 -320.84375 142.191406 -317.394531 153.890625 -310.5 C 165.597656 -303.601562 174.828125 -294.078125 181.578125 -281.921875 C 188.328125 -269.773438 191.703125 -255.75 191.703125 -239.84375 L 191.703125 -71.09375 C 191.703125 -60 194.25 -50.175781 199.34375 -41.625 C 204.445312 -33.070312 211.125 -26.320312 219.375 -21.375 C 227.625 -16.425781 236.695312 -13.953125 246.59375 -13.953125 C 256.195312 -13.953125 265.046875 -16.425781 273.140625 -21.375 C 281.242188 -26.320312 287.695312 -33.070312 292.5 -41.625 C 297.300781 -50.175781 299.703125 -60 299.703125 -71.09375 L 299.703125 -315 L 321.296875 -315 L 321.296875 -75.15625 C 321.296875 -59.25 318.144531 -45.21875 311.84375 -33.0625 C 305.550781 -20.914062 296.78125 -11.394531 285.53125 -4.5 C 274.28125 2.394531 261.300781 5.84375 246.59375 5.84375 Z M 246.59375 5.84375 "/></g></g></g><g fill="#000000" fill-opacity="1"><g transform="translate(732.474114, 1094.524446)"><g><path d="M 174.15625 0 C 150.75 0 129.144531 -4.125 109.34375 -12.375 C 89.550781 -20.625 72.53125 -32.023438 58.28125 -46.578125 C 44.03125 -61.128906 33.003906 -77.925781 25.203125 -96.96875 C 17.398438 -116.019531 13.5 -136.347656 13.5 -157.953125 C 13.5 -179.546875 17.398438 -199.789062 25.203125 -218.6875 C 33.003906 -237.59375 44.03125 -254.242188 58.28125 -268.640625 C 72.53125 -283.046875 89.550781 -294.375 109.34375 -302.625 C 129.144531 -310.875 150.75 -315 174.15625 -315 L 206.546875 -315 L 206.546875 -295.203125 L 175.5 -295.203125 C 156 -295.203125 137.773438 -291.75 120.828125 -284.84375 C 103.878906 -277.945312 89.101562 -268.273438 76.5 -255.828125 C 63.894531 -243.378906 54.066406 -228.828125 47.015625 -212.171875 C 39.972656 -195.523438 36.453125 -177.453125 36.453125 -157.953125 C 36.453125 -138.148438 39.972656 -119.921875 47.015625 -103.265625 C 54.066406 -86.617188 63.894531 -71.992188 76.5 -59.390625 C 89.101562 -46.796875 103.878906 -37.046875 120.828125 -30.140625 C 137.773438 -23.242188 156 -19.796875 175.5 -19.796875 L 206.546875 -19.796875 L 206.546875 0 Z M 174.15625 0 "/></g></g></g></svg>